<?xml version="1.0" standalone="no"?>
<!DOCTYPE svg PUBLIC "-//W3C//DTD SVG 20010904//EN"
 "http://www.w3.org/TR/2001/REC-SVG-20010904/DTD/svg10.dtd">
<svg version="1.0" xmlns="http://www.w3.org/2000/svg"
 width="400.000000pt" height="234.000000pt" viewBox="0 0 400.000000 234.000000"
 preserveAspectRatio="xMidYMid meet">

<g transform="translate(0.000000,234.000000) scale(0.100000,-0.100000)"
fill="#000000" stroke="none">
<path d="M3322 2028 c-17 -17 -15 -45 4 -56 14 -8 13 -28 -7 -205 -13 -107
-27 -193 -31 -191 -4 3 -60 83 -125 179 -64 96 -118 173 -120 171 -3 -2 23
-77 57 -167 33 -89 59 -166 57 -172 -1 -5 -90 58 -197 140 -174 133 -194 152
-195 178 0 27 -4 30 -30 30 -21 0 -31 -5 -33 -18 -5 -23 15 -47 37 -47 11 0
92 -94 204 -235 l187 -235 217 0 218 1 75 97 c294 383 293 382 316 382 30 0
51 35 33 56 -25 31 -73 5 -62 -35 3 -11 -53 -62 -187 -170 -105 -84 -194 -150
-197 -148 -3 3 21 83 53 177 46 135 64 174 80 180 27 11 38 38 23 56 -28 34
-78 -1 -57 -39 8 -16 -11 -50 -109 -198 -65 -98 -121 -179 -124 -179 -10 0
-15 28 -40 212 -20 154 -20 168 -5 183 9 9 16 22 16 29 0 15 -20 36 -35 36 -6
0 -16 -5 -23 -12z"/>
<path d="M3002 2008 c-29 -29 3 -82 36 -61 23 14 26 38 7 57 -20 19 -27 20
-43 4z"/>
<path d="M608 1904 c-94 -22 -129 -54 -93 -84 13 -11 25 -8 71 15 76 38 154
45 183 16 40 -40 20 -118 -41 -164 -36 -26 -56 -35 -105 -47 -42 -10 -42 0 2
73 42 69 43 84 10 99 -34 15 -45 4 -94 -95 -67 -137 -88 -263 -51 -310 26 -33
68 -42 133 -27 133 31 197 131 132 208 l-25 30 34 20 c54 32 89 86 94 146 4
45 1 56 -22 83 -42 50 -121 63 -228 37z m82 -324 c11 -11 20 -33 20 -50 0 -59
-96 -132 -150 -115 -28 9 -35 48 -19 108 12 46 18 53 49 64 51 17 77 16 100
-7z"/>
<path d="M920 1720 c-12 -7 -12 -12 -2 -22 19 -19 15 -44 -23 -131 -48 -111
-53 -149 -25 -177 16 -16 28 -20 48 -15 38 9 86 48 123 100 36 50 47 52 30 4
-16 -46 -14 -66 9 -89 27 -27 56 -25 85 5 32 31 32 44 -2 42 -26 -2 -28 0 -27
38 0 24 18 79 43 137 24 53 40 102 36 108 -3 5 -17 10 -30 10 -19 0 -33 -17
-75 -90 -85 -148 -156 -228 -182 -202 -7 7 2 37 25 89 42 93 63 164 54 186 -7
19 -62 23 -87 7z"/>
<path d="M1304 1719 c-3 -6 -1 -16 5 -22 19 -19 12 -57 -28 -176 -22 -63 -37
-120 -34 -127 5 -15 41 -29 50 -20 3 3 16 31 29 61 26 66 79 157 112 192 19
21 29 24 56 19 40 -8 59 10 54 51 -2 22 -9 29 -32 31 -35 4 -76 -31 -117 -103
-32 -56 -35 -52 -14 18 19 63 8 87 -40 87 -18 0 -37 -5 -41 -11z"/>
<path d="M1690 1714 c-112 -75 -169 -209 -125 -294 31 -60 89 -62 152 -7 35
31 36 31 28 7 -28 -93 -86 -173 -142 -197 -39 -16 -42 -30 -8 -39 34 -8 104
34 137 83 50 76 57 92 112 258 53 157 56 171 40 182 -14 11 -21 10 -34 -2 -15
-14 -19 -13 -35 5 -23 25 -90 27 -125 4z m100 -32 c23 -18 23 -19 6 -69 -35
-107 -113 -204 -151 -189 -14 5 -17 17 -13 69 4 72 38 147 81 183 34 29 48 30
77 6z"/>
<path d="M2044 1698 c-36 -25 -57 -49 -81 -96 -52 -101 -42 -178 28 -216 64
-35 189 4 189 59 0 14 -2 25 -4 25 -2 0 -24 -11 -47 -25 -71 -40 -109 -32
-124 26 -5 22 -2 27 17 33 13 3 32 6 43 6 40 0 123 48 139 79 60 116 -44 186
-160 109z m111 -28 c13 -41 -67 -130 -116 -130 -24 0 -24 16 2 65 38 75 100
109 114 65z"/>
<path d="M2314 1719 c-3 -6 -1 -16 5 -22 19 -19 13 -56 -30 -181 -39 -114 -40
-121 -23 -133 30 -22 44 -12 69 50 27 67 80 158 113 194 19 21 29 24 56 19 40
-8 59 10 54 51 -2 22 -9 29 -32 31 -35 4 -76 -31 -117 -103 -32 -56 -35 -52
-14 18 19 63 8 87 -40 87 -18 0 -37 -5 -41 -11z"/>
<path d="M3140 1310 l0 -40 210 0 210 0 0 40 0 40 -210 0 -210 0 0 -40z"/>
<path d="M3077 1156 c-100 -36 -161 -114 -173 -222 -6 -47 -13 -64 -36 -86
-18 -17 -28 -36 -28 -55 0 -33 25 -73 46 -73 24 0 16 -37 -16 -68 -45 -45 -40
-101 11 -128 17 -8 29 -23 29 -34 0 -31 58 -89 101 -100 26 -7 154 -10 357 -8
366 3 365 3 404 88 13 28 26 50 30 50 21 0 48 43 48 75 0 27 -7 39 -30 57 -16
12 -30 28 -30 36 0 8 14 27 30 42 40 37 41 82 2 118 -23 22 -30 39 -35 84 -11
111 -83 199 -187 228 -55 16 -477 12 -523 -4z m528 -27 c53 -15 129 -91 144
-144 6 -22 11 -57 11 -77 l0 -38 -415 0 -415 0 0 38 c0 94 62 187 143 216 53
18 469 22 532 5z m203 -301 c7 -7 12 -24 12 -38 0 -14 -5 -31 -12 -38 -9 -9
-125 -12 -459 -12 -394 0 -449 2 -463 16 -19 18 -21 55 -4 72 17 17 909 17
926 0z m-50 -135 c-3 -16 -23 -18 -228 -21 l-225 -2 -37 -37 -38 -37 -68 34
c-55 29 -81 36 -147 40 -66 4 -80 8 -83 23 -3 16 22 17 413 17 391 0 416 -1
413 -17z m-602 -94 l73 -40 44 40 44 41 240 0 c252 0 263 -2 263 -46 0 -55 5
-54 -472 -54 -397 0 -443 2 -460 17 -21 18 -24 53 -6 71 8 8 46 12 106 12 92
0 97 -1 168 -41z m597 -106 c-10 -29 -36 -55 -70 -69 -47 -20 -629 -20 -676 0
-34 14 -60 40 -70 69 -6 16 18 17 408 17 390 0 414 -1 408 -17z"/>
<path d="M3600 1040 c0 -5 5 -10 10 -10 6 0 10 5 10 10 0 6 -4 10 -10 10 -5 0
-10 -4 -10 -10z"/>
<path d="M3550 990 c0 -5 5 -10 10 -10 6 0 10 5 10 10 0 6 -4 10 -10 10 -5 0
-10 -4 -10 -10z"/>
<path d="M3616 983 c-11 -11 -6 -23 9 -23 8 0 15 4 15 9 0 13 -16 22 -24 14z"/>
<path d="M909 1016 c-121 -32 -218 -165 -226 -310 -4 -76 6 -109 43 -133 18
-12 24 -11 43 5 l23 18 -22 37 c-18 31 -21 47 -16 85 15 115 127 262 200 262
55 0 69 -22 64 -100 -7 -137 -131 -315 -246 -356 -29 -10 -52 -24 -52 -30 0
-6 26 -14 61 -17 52 -4 72 -13 128 -50 102 -71 158 -84 199 -50 36 31 32 47
-10 44 -30 -2 -59 9 -133 49 l-96 52 38 27 c142 103 220 293 166 406 -27 59
-87 81 -164 61z"/>
<path d="M1180 830 c-12 -7 -12 -12 -2 -22 19 -19 15 -42 -28 -142 -44 -103
-49 -144 -22 -169 39 -36 98 -8 164 77 23 30 43 54 44 53 1 -1 -3 -25 -9 -54
-10 -46 -9 -55 8 -73 24 -27 61 -25 90 5 34 33 32 46 -5 39 -29 -6 -30 -5 -30
32 0 25 17 76 45 139 25 55 43 106 40 112 -2 7 -15 13 -29 13 -20 0 -33 -15
-76 -90 -85 -148 -156 -228 -182 -202 -6 6 2 37 25 88 48 110 60 151 53 180
-5 19 -13 24 -39 24 -17 0 -39 -5 -47 -10z"/>
<path d="M1649 820 c-71 -37 -129 -134 -129 -214 0 -61 16 -92 58 -112 76 -36
210 14 189 69 -5 14 -11 13 -49 -8 -24 -14 -55 -25 -69 -25 -30 0 -59 28 -59
57 0 17 8 23 43 28 63 10 140 50 160 84 23 39 22 82 -4 115 -16 21 -29 26 -62
26 -23 -1 -58 -10 -78 -20z m89 -57 c4 -40 -37 -89 -93 -108 -22 -7 -41 -12
-43 -10 -9 9 45 109 71 131 38 32 61 28 65 -13z"/>
<path d="M1989 820 c-101 -53 -165 -216 -114 -293 18 -28 62 -47 109 -47 44 1
113 34 121 59 11 36 -4 41 -48 15 -23 -13 -54 -24 -68 -24 -30 0 -59 28 -59
57 0 17 8 23 43 28 100 16 165 66 174 133 11 80 -72 118 -158 72z m89 -57 c3
-25 -4 -39 -32 -67 -30 -29 -92 -60 -104 -50 -10 7 45 108 71 130 38 32 61 28
65 -13z"/>
<path d="M2251 826 c-8 -10 -9 -16 -1 -21 25 -16 12 -62 -73 -267 -9 -23 -8
-31 5 -44 25 -25 46 -10 72 49 26 59 78 131 139 195 72 74 87 48 36 -63 -42
-89 -48 -146 -20 -174 35 -35 101 -19 114 28 4 17 1 19 -31 14 -35 -6 -35 -6
-29 26 4 18 20 62 36 99 42 96 46 118 27 147 -13 19 -25 25 -52 25 -38 0 -70
-26 -142 -115 l-32 -40 20 45 c23 52 25 81 8 98 -16 16 -63 15 -77 -2z"/>
</g>
</svg>
